# xmcd
#
# Track frame offsets:
#	150
#	14962
#	29224
#	46064
#	63135
#	78607
#	92567
#	110116
#	125449
#	141405
#	154611
#	168453
#	181817
#	195173
#	212130
#
# Disc length: 3028 seconds
#
# Revision: 1
# Processed by: cddbd v1.5.2PL0 Copyright (c) Steve Scherf et al.
# Submitted via: audiograbber 1.83.01
#
DISCID=d20bd20f
DTITLE=Jason Aldean - Old Boots, New Dirt
DYEAR=2014
DGENRE=Country
TTITLE0=Just Gettin' Started
TTITLE1=Show You Off
TTITLE2=Burnin' It Down
TTITLE3=Tryin' To Love Me
TTITLE4=Sweet Little Somethin'
TTITLE5=Laid Back
TTITLE6=Tonight Looks Good On You
TTITLE7=Too Fast
TTITLE8=If My Truck Could Talk
TTITLE9=Old Boots, New Dirt
TTITLE10=I Took It With Me
TTITLE11=Don't Change Gone
TTITLE12=Miss That Girl
TTITLE13=Gonna Know We Were Here
TTITLE14=Two Night Town
EXTD=
EXTT0=
EXTT1=
EXTT2=
EXTT3=
EXTT4=
EXTT5=
EXTT6=
EXTT7=
EXTT8=
EXTT9=
EXTT10=
EXTT11=
EXTT12=
EXTT13=
EXTT14=
PLAYORDER=
